<?xml version="1.0" encoding="UTF-8"?>
<!DOCTYPE svg PUBLIC "-//W3C//DTD SVG 1.1//EN" "http://www.w3.org/Graphics/SVG/1.1/DTD/svg11.dtd">
<!-- Creator: CorelDRAW Standard 2020 -->
<svg xmlns="http://www.w3.org/2000/svg" xml:space="preserve" width="273px" height="273px" version="1.1" style="shape-rendering:geometricPrecision; text-rendering:geometricPrecision; image-rendering:optimizeQuality; fill-rule:evenodd; clip-rule:evenodd"
viewBox="0 0 273 273"
 xmlns:xlink="http://www.w3.org/1999/xlink"
 xmlns:xodm="http://www.corel.com/coreldraw/odm/2003">
 <defs>
  <style type="text/css">
   <![CDATA[
    .str0 {stroke:#FFDA45;stroke-width:1.181;stroke-miterlimit:22.9256}
    .fil0 {fill:#FFDA45}
    .fil1 {fill:#D68F00;fill-rule:nonzero}
   ]]>
  </style>
 </defs>
 <g id="Layer_x0020_1">
  <metadata id="CorelCorpID_0Corel-Layer"/>
  <g id="_1278711776">
   <circle class="fil0 str0" cx="136.065" cy="136.935" r="136.5"/>
   <path class="fil1" d="M142.379 199.251l0 19.399 -12.994 0 0 -18.85c-12.11,-0.061 -23.395,-2.806 -33.857,-8.235l0 -24.707c3.477,2.806 8.632,5.399 15.495,7.778 6.863,2.379 12.993,3.751 18.362,4.118l0 -32.577c-13.97,-5.184 -23.486,-10.797 -28.58,-16.836 -5.094,-6.04 -7.656,-13.421 -7.656,-22.114 0,-9.334 3.324,-17.295 9.943,-23.883 6.619,-6.558 15.373,-10.401 26.293,-11.469l0 -16.654 12.994 0 0 16.288c12.597,0.58 21.992,2.592 28.184,6.04l0 24.157c-8.358,-5.094 -17.753,-8.205 -28.184,-9.334l0 33.857c13.055,4.698 22.419,10.096 28.092,16.136 5.673,6.039 8.51,13.36 8.51,21.931 0,9.913 -3.172,17.874 -9.486,23.913 -6.314,6.04 -15.373,9.73 -27.116,11.042zm-12.994 -78.146l0 -28.367c-8.296,1.495 -12.445,5.826 -12.445,12.963 0,6.162 4.149,11.286 12.445,15.404zm12.994 30.197l0 27.085c8.54,-1.311 12.811,-5.581 12.811,-12.78 0,-5.856 -4.271,-10.614 -12.811,-14.305z"/>
   <path class="fil1" d="M149.953 236.478l-0.974 0.129 -0.629 0.078 -0.631 0.074 -0.632 0.07 -0.633 0.067 -0.634 0.062 -0.635 0.059 -0.635 0.054 -0.639 0.051 -0.639 0.046 -0.64 0.043 -0.641 0.038 -0.643 0.035 -0.643 0.031 -0.644 0.026 -0.645 0.023 -0.647 0.018 -0.648 0.014 -0.648 0.011 -0.65 0.006 -0.651 0.001 0 14.807 0.744 -0.002 0.744 -0.007 0.743 -0.012 0.741 -0.016 0.741 -0.021 0.739 -0.026 0.739 -0.03 0.736 -0.036 0.735 -0.039 0.735 -0.044 0.733 -0.049 0.733 -0.054 0.73 -0.057 0.73 -0.063 0.729 -0.067 0.727 -0.072 0.726 -0.076 0.725 -0.08 0.722 -0.085 0.722 -0.089 1.068 -0.142 -1.961 -14.676zm-24.606 0.36l-0.721 -0.079 -0.631 -0.074 -0.63 -0.078 -0.627 -0.082 -0.627 -0.086 -0.626 -0.089 -0.624 -0.094 -0.623 -0.097 -0.622 -0.101 -0.62 -0.105 -0.618 -0.108 -0.618 -0.112 -0.617 -0.117 -0.615 -0.119 -0.614 -0.124 -0.612 -0.127 -0.611 -0.131 -0.609 -0.135 -0.609 -0.138 -0.606 -0.142 -0.605 -0.146 -0.478 -0.118 -3.599 14.362 0.566 0.141 0.696 0.167 0.696 0.163 0.698 0.159 0.7 0.155 0.702 0.15 0.703 0.146 0.705 0.142 0.706 0.138 0.707 0.133 0.709 0.129 0.712 0.125 0.712 0.12 0.713 0.116 0.715 0.111 0.716 0.108 0.718 0.102 0.719 0.098 0.721 0.095 0.722 0.089 0.722 0.085 0.815 0.09 1.589 -14.722zm-26.637 -6.637l-1.083 -0.443 -0.563 -0.236 -0.562 -0.24 -0.562 -0.244 -0.559 -0.246 -0.556 -0.25 -0.556 -0.253 -0.553 -0.256 -0.552 -0.26 -0.549 -0.263 -0.548 -0.265 -1.092 -0.543 -1.082 -0.555 -0.538 -0.282 -0.537 -0.285 -0.535 -0.289 -0.533 -0.291 -0.53 -0.294 -0.93 -0.527 -7.381 12.836 1.084 0.615 0.611 0.338 0.611 0.335 0.614 0.33 0.616 0.328 0.618 0.323 0.62 0.321 0.624 0.317 0.625 0.313 0.625 0.308 0.63 0.306 0.631 0.302 0.633 0.298 0.636 0.294 0.638 0.291 0.64 0.287 0.641 0.283 0.643 0.279 0.646 0.275 0.649 0.272 0.649 0.268 0.518 0.21 5.599 -13.707zm-23.873 -13.673l-0.697 -0.542 -0.944 -0.75 -0.935 -0.762 -0.464 -0.387 -0.462 -0.388 -0.459 -0.39 -0.457 -0.394 -0.908 -0.796 -0.45 -0.401 -0.447 -0.404 -0.445 -0.407 -0.883 -0.822 -0.438 -0.415 -0.435 -0.417 -0.863 -0.843c-0.342,-0.34 -0.683,-0.68 -1.022,-1.025l-10.594 10.344 0.719 0.726 0.489 0.487 0.494 0.484 0.496 0.482 0.499 0.479 0.502 0.475 0.504 0.472 0.508 0.469 0.51 0.467 0.513 0.464 0.517 0.461 0.518 0.457 0.52 0.454 0.524 0.451 0.528 0.449 0.529 0.445 0.532 0.441 0.535 0.439 0.538 0.436 0.54 0.433 0.544 0.43 0.766 0.596 9.078 -11.698zm-19.279 -19.603l-0.625 -0.847 -0.354 -0.49 -0.353 -0.492 -0.348 -0.493 -0.346 -0.496 -0.343 -0.498 -0.677 -1.002 -0.666 -1.012 -0.328 -0.508 -0.325 -0.51 -0.322 -0.513 -0.32 -0.515 -0.316 -0.517 -0.623 -1.04 -0.611 -1.048 -0.301 -0.527 -0.298 -0.528 -0.3 -0.541 -13.01 7.068 0.386 0.697 0.341 0.607 0.346 0.605 0.349 0.603 0.352 0.6 0.356 0.597 0.359 0.596 0.363 0.593 0.366 0.59 0.369 0.589 0.374 0.586 0.377 0.584 0.38 0.58 0.383 0.579 0.387 0.576 0.389 0.574 0.394 0.57 0.397 0.569 0.401 0.567 0.402 0.563 0.407 0.562 0.678 0.919 11.91 -8.797zm-13.266 -24.095l-0.291 -0.771 -0.213 -0.576 -0.21 -0.577 -0.205 -0.579 -0.203 -0.582 -0.199 -0.582 -0.196 -0.584 -0.192 -0.585 -0.189 -0.589 -0.185 -0.588 -0.182 -0.589 -0.178 -0.593 -0.175 -0.594 -0.171 -0.595 -0.167 -0.595 -0.164 -0.599 -0.16 -0.6 -0.156 -0.599 -0.153 -0.603 -0.15 -0.604 -0.145 -0.605 -0.14 -0.597 -14.427 3.33 0.16 0.687 0.168 0.696 0.171 0.693 0.176 0.691 0.18 0.692 0.184 0.687 0.188 0.686 0.193 0.686 0.196 0.684 0.2 0.681 0.205 0.679 0.208 0.679 0.214 0.677 0.216 0.674 0.22 0.672 0.225 0.672 0.229 0.668 0.232 0.667 0.237 0.666 0.241 0.664 0.244 0.661 0.324 0.854 13.84 -5.26zm-6.192 -26.786l-0.063 -0.732 -0.051 -0.638 -0.047 -0.639 -0.042 -0.639 -0.039 -0.641 -0.034 -0.643 -0.031 -0.644 -0.027 -0.643 -0.022 -0.646 -0.018 -0.648 -0.015 -0.646 -0.01 -0.648 -0.006 -0.65 -0.002 -0.652 0.002 -0.651 0.006 -0.65 0.01 -0.648 0.015 -0.647 0.018 -0.648 0.022 -0.646 0.033 -0.763 -14.788 -0.75 -0.04 0.952 -0.026 0.739 -0.022 0.739 -0.016 0.742 -0.011 0.744 -0.008 0.743 -0.002 0.744 0.002 0.744 0.008 0.744 0.011 0.743 0.016 0.742 0.022 0.739 0.026 0.739 0.03 0.739 0.035 0.737 0.04 0.735 0.044 0.735 0.048 0.733 0.054 0.732 0.058 0.731 0.071 0.826 14.749 -1.31zm1.269 -27.488l0.122 -0.65 0.119 -0.615 0.124 -0.613 0.128 -0.613 0.131 -0.611 0.134 -0.61 0.138 -0.608 0.143 -0.607 0.145 -0.604 0.15 -0.604 0.153 -0.603 0.156 -0.6 0.16 -0.6 0.164 -0.599 0.167 -0.595 0.171 -0.595 0.175 -0.594 0.178 -0.593 0.182 -0.589 0.185 -0.588 0.189 -0.588 0.205 -0.625 -14.026 -4.745 -0.262 0.798 -0.216 0.673 -0.214 0.678 -0.208 0.678 -0.205 0.679 -0.2 0.681 -0.196 0.684 -0.193 0.686 -0.188 0.686 -0.184 0.688 -0.18 0.691 -0.176 0.691 -0.171 0.693 -0.168 0.697 -0.163 0.696 -0.159 0.699 -0.154 0.699 -0.151 0.701 -0.146 0.703 -0.142 0.705 -0.137 0.706 -0.14 0.742 14.56 2.695zm8.661 -26.066l0.375 -0.751 0.555 -1.084 0.282 -0.538 0.285 -0.536 0.288 -0.535 0.587 -1.064 0.599 -1.056 0.611 -1.048 0.31 -0.52 0.629 -1.037 0.642 -1.028 0.325 -0.51 0.328 -0.508 0.665 -1.011 0.451 -0.669 -12.22 -8.361 -0.549 0.814 -0.383 0.579 -0.381 0.581 -0.376 0.583 -0.374 0.587 -0.369 0.588 -0.366 0.59 -0.363 0.594 -0.359 0.594 -0.356 0.598 -0.352 0.6 -0.349 0.603 -0.346 0.605 -0.341 0.607 -0.339 0.609 -0.334 0.612 -0.331 0.613 -0.327 0.616 -0.325 0.619 -0.319 0.62 -0.317 0.623 -0.415 0.833 13.259 6.588zm15.428 -22.741l0.742 -0.817 0.823 -0.883 0.832 -0.874 0.842 -0.862 0.853 -0.853 0.862 -0.842 0.874 -0.833 0.883 -0.821 0.445 -0.407 0.447 -0.404 0.903 -0.801 0.454 -0.397c0.31,-0.266 0.62,-0.535 0.933,-0.798l-9.492 -11.363 -0.611 0.518 -0.524 0.452 -0.522 0.454 -0.518 0.458 -0.516 0.46 -0.513 0.464 -0.51 0.467 -0.508 0.469 -0.504 0.472 -0.502 0.476 -0.499 0.478 -0.496 0.482 -0.494 0.484 -0.489 0.487 -0.487 0.491 -0.485 0.493 -0.482 0.496 -0.478 0.499 -0.476 0.501 -0.472 0.505 -0.469 0.507 -0.468 0.511 -0.337 0.373 10.959 9.958zm21.034 -17.769c0.353,-0.225 0.71,-0.445 1.066,-0.666l1.037 -0.63 0.52 -0.31 1.048 -0.611 0.528 -0.301 0.529 -0.298 0.53 -0.294 0.533 -0.291 0.535 -0.289 0.537 -0.285 0.538 -0.282 0.541 -0.279 0.541 -0.276 0.545 -0.272 0.547 -0.271 0.548 -0.265 0.549 -0.263 0.552 -0.26 0.882 -0.406 -6.101 -13.491 -1.046 0.481 -0.633 0.298 -0.631 0.302 -0.63 0.306 -0.626 0.309 -0.624 0.313 -0.623 0.316 -0.621 0.321 -0.618 0.323 -0.616 0.328 -0.614 0.33 -0.611 0.335 -0.611 0.338 -0.606 0.343 -0.604 0.344 -0.603 0.349 -0.6 0.353 -0.598 0.355 -0.595 0.359 -0.593 0.363 -0.591 0.366 -0.627 0.395 7.916 12.513zm24.98 -11.368l0.594 -0.174 0.595 -0.172 0.596 -0.167 0.599 -0.164 0.6 -0.16 0.599 -0.157 1.207 -0.302 0.605 -0.146 0.606 -0.142 0.608 -0.138 0.61 -0.135 0.611 -0.131 0.612 -0.127 0.614 -0.124 0.615 -0.119 0.617 -0.117 0.618 -0.112 0.618 -0.108 0.62 -0.105 0.622 -0.101 0.679 -0.106 -2.144 -14.651 -0.863 0.134 -0.713 0.116 -0.712 0.121 -0.712 0.124 -0.709 0.129 -0.707 0.133 -0.706 0.138 -0.705 0.142 -0.704 0.146 -0.701 0.15 -0.699 0.155 -0.699 0.159 -0.696 0.163 -0.696 0.167 -0.693 0.172 -0.691 0.175 -0.692 0.181 -0.688 0.184 -0.686 0.188 -0.686 0.192 -0.683 0.197 -0.594 0.174 4.134 14.218zm27.211 -4.146l0.838 -0.009 0.651 -0.001 0.651 0.001 0.65 0.006 0.648 0.011 0.647 0.014 0.648 0.019 0.646 0.022 0.643 0.026 0.643 0.031 0.643 0.035 0.641 0.038 0.64 0.043 0.639 0.046 0.639 0.051 0.635 0.055 0.635 0.058 0.634 0.063 0.633 0.066 0.632 0.07 0.712 0.084 1.867 -14.688 -0.896 -0.107 -0.725 -0.08 -0.726 -0.076 -0.727 -0.072 -0.729 -0.067 -0.73 -0.063 -0.73 -0.057 -0.733 -0.054 -0.733 -0.049 -0.735 -0.044 -0.735 -0.039 -0.736 -0.035 -0.74 -0.031 -0.738 -0.025 -0.74 -0.021 -0.742 -0.017 -0.743 -0.012 -0.744 -0.007 -0.744 -0.002 -0.744 0.002 -0.931 0.01 0.186 14.805zm27.275 3.327l0.531 0.142 0.599 0.164 0.596 0.167 0.594 0.171 0.594 0.175 0.593 0.178 0.59 0.182 0.588 0.185 0.588 0.188 0.586 0.192 0.583 0.196 0.583 0.199 0.581 0.203 0.579 0.206 0.577 0.209 0.576 0.213 0.575 0.217 0.573 0.22 0.57 0.222 0.57 0.227 0.567 0.23 0.862 0.358 5.768 -13.638 -1.029 -0.427 -0.653 -0.264 -0.653 -0.26 -0.656 -0.257 -0.658 -0.252 -0.659 -0.248 -0.661 -0.245 -0.664 -0.24 -0.665 -0.237 -0.667 -0.233 -0.67 -0.228 -0.671 -0.225 -0.673 -0.221 -0.673 -0.216 -0.677 -0.213 -0.678 -0.209 -0.68 -0.204 -0.681 -0.2 -0.684 -0.197 -0.685 -0.192 -0.686 -0.188 -0.531 -0.142 -3.869 14.292zm25.348 10.627l0.963 0.578 0.517 0.316 0.515 0.319 0.513 0.323 0.51 0.324 0.508 0.328 1.012 0.666 1.003 0.677 0.497 0.344 0.496 0.345 0.494 0.349 0.492 0.352 0.489 0.355 0.486 0.357 0.485 0.36 0.484 0.364 0.479 0.366 0.478 0.368 0.95 0.746 -0.029 -0.022 9.288 -11.532 -0.583 -0.462 -0.546 -0.425 -0.549 -0.424 -0.551 -0.42 -0.553 -0.416 -0.556 -0.413 -0.559 -0.41 -0.561 -0.407 -0.563 -0.403 -0.566 -0.401 -0.569 -0.396 -0.572 -0.394 -0.573 -0.389 -0.576 -0.388 -0.579 -0.383 -0.58 -0.379 -0.584 -0.377 -0.587 -0.374 -0.588 -0.37 -0.59 -0.366 -0.593 -0.362 -0.596 -0.36 -0.444 -0.264 -7.612 12.7zm21.55 17.138l0.466 0.491 0.822 0.883 0.407 0.444 0.805 0.898 0.796 0.907 0.394 0.458 0.39 0.458 0.774 0.927 0.763 0.936 0.377 0.47 0.374 0.474 0.372 0.476 0.369 0.478 0.366 0.48 0.363 0.483 0.36 0.484 0.616 0.844 12.015 -8.654 -0.72 -0.986 -0.414 -0.556 -0.416 -0.553 -0.42 -0.551 -0.423 -0.548 -0.425 -0.545 -0.43 -0.544 -0.433 -0.541 -0.435 -0.537 -0.439 -0.535 -0.442 -0.532 -0.445 -0.53 -0.449 -0.527 -0.451 -0.524 -0.453 -0.521 -0.458 -0.518 -0.46 -0.516 -0.464 -0.513 -0.467 -0.511 -0.469 -0.507 -0.473 -0.505 -0.526 -0.554 -10.717 10.217zm16.097 22.277l0.432 0.82 0.555 1.084 0.272 0.543 0.269 0.547 0.267 0.548 0.262 0.55 0.259 0.551 0.257 0.554 0.253 0.555 0.25 0.557 0.247 0.559 0.243 0.561 0.24 0.563 0.236 0.563 0.234 0.566 0.229 0.568 0.227 0.569 0.223 0.571 0.219 0.572 0.217 0.574 0.216 0.585 13.935 -5.006 -0.278 -0.754 -0.249 -0.659 -0.252 -0.66 -0.257 -0.655 -0.26 -0.653 -0.264 -0.652 -0.268 -0.649 -0.271 -0.649 -0.276 -0.646 -0.279 -0.644 -0.283 -0.641 -0.287 -0.64 -0.291 -0.637 -0.294 -0.635 -0.298 -0.634 -0.302 -0.631 -0.305 -0.629 -0.31 -0.627 -0.312 -0.625 -0.317 -0.623 -0.32 -0.62 -0.474 -0.901 -13.095 6.91zm9.437 25.799l0.221 1.044 0.123 0.613 0.12 0.615 0.116 0.616 0.112 0.618 0.109 0.619 0.104 0.62 0.101 0.622 0.098 0.623 0.093 0.624 0.09 0.626 0.085 0.626 0.082 0.628 0.078 0.629 0.075 0.631 0.069 0.632 0.067 0.633 0.062 0.634 0.058 0.635 0.055 0.636 0.056 0.705 14.771 -1.03 -0.07 -0.89 -0.063 -0.731 -0.067 -0.729 -0.071 -0.727 -0.076 -0.725 -0.081 -0.725 -0.085 -0.723 -0.089 -0.721 -0.094 -0.722 -0.099 -0.718 -0.103 -0.718 -0.106 -0.717 -0.112 -0.715 -0.116 -0.712 -0.12 -0.713 -0.125 -0.711 -0.129 -0.709 -0.133 -0.708 -0.138 -0.706 -0.142 -0.705 -0.238 -1.132 -14.488 3.058zm2.077 27.441l-0.062 0.96 -0.047 0.639 -0.05 0.638 -0.055 0.636 -0.058 0.635 -0.062 0.635 -0.067 0.632 -0.069 0.632 -0.075 0.631 -0.078 0.629 -0.082 0.628 -0.085 0.626 -0.09 0.626 -0.093 0.625 -0.098 0.622 -0.101 0.623 -0.104 0.62 -0.109 0.618 -0.112 0.618 -0.116 0.616 -0.151 0.768 14.506 2.969 0.187 -0.95 0.133 -0.708 0.129 -0.709 0.125 -0.711 0.12 -0.713 0.116 -0.712 0.112 -0.715 0.106 -0.716 0.103 -0.718 0.099 -0.719 0.094 -0.721 0.089 -0.722 0.085 -0.723 0.081 -0.725 0.076 -0.725 0.071 -0.727 0.067 -0.729 0.063 -0.73 0.057 -0.731 0.054 -0.732 0.068 -1.053 -14.777 -0.937zm-5.391 26.954l-0.309 0.876 -0.21 0.578 -0.213 0.577 -0.217 0.575 -0.219 0.571 -0.223 0.571 -0.227 0.569 -0.23 0.569 -0.233 0.565 -0.236 0.563 -0.24 0.563 -0.244 0.561 -0.246 0.559 -0.25 0.557 -0.253 0.555 -0.256 0.553 -0.26 0.552 -0.262 0.55 -0.267 0.548 -0.269 0.547 -0.272 0.543 -0.276 0.542 13.138 6.829 0.357 -0.701 0.312 -0.625 0.31 -0.626 0.305 -0.63 0.302 -0.631 0.298 -0.633 0.294 -0.635 0.291 -0.638 0.287 -0.64 0.283 -0.642 0.279 -0.643 0.276 -0.645 0.271 -0.649 0.268 -0.65 0.264 -0.652 0.26 -0.652 0.257 -0.656 0.252 -0.66 0.249 -0.659 0.243 -0.66 0.241 -0.663 0.341 -0.965 -13.966 -4.918zm-12.541 24.476l-0.417 0.592 -0.351 0.491 -0.355 0.489 -0.718 0.972 -0.364 0.484 -0.365 0.48 -0.741 0.954 -0.751 0.944 -0.763 0.936 -0.385 0.463 -0.389 0.462 -0.391 0.46 -0.79 0.912 -0.399 0.453 -0.805 0.897 -0.671 0.73 10.837 10.089 0.791 -0.861 0.463 -0.512 0.461 -0.517 0.458 -0.518 0.454 -0.522 0.451 -0.524 0.448 -0.526 0.445 -0.529 0.442 -0.533 0.439 -0.535 0.435 -0.538 0.433 -0.54 0.429 -0.543 0.426 -0.545 0.424 -0.549 0.419 -0.552 0.416 -0.552 0.414 -0.555 0.409 -0.559 0.407 -0.561 0.404 -0.565 0.469 -0.665 -12.119 -8.507zm-18.69 20.163l-0.697 0.568 -0.945 0.751 -0.954 0.74 -0.479 0.366 -0.484 0.364 -0.972 0.718 -0.489 0.354 -0.491 0.352 -0.493 0.348 -0.996 0.69 -0.499 0.34 -0.502 0.337 -1.011 0.665 -0.509 0.329 -0.51 0.324 -0.513 0.323 -0.678 0.419 7.688 12.654 0.83 -0.512 0.588 -0.37 0.587 -0.373 0.583 -0.377 0.581 -0.38 0.579 -0.383 0.576 -0.387 0.574 -0.391 0.571 -0.393 0.568 -0.396 0.567 -0.401 0.564 -0.403 0.561 -0.407 0.558 -0.41 0.556 -0.413 0.553 -0.416 0.551 -0.42 0.549 -0.423 0.545 -0.426 0.544 -0.429 0.539 -0.433 0.766 -0.622 -9.356 -11.477zm-23.42 14.361l-0.582 0.253 -0.562 0.24 -0.564 0.236 -0.565 0.233 -0.568 0.23 -0.57 0.227 -0.571 0.223 -0.572 0.219 -0.574 0.217 -0.577 0.213 -0.578 0.209 -0.578 0.206 -0.58 0.202 -0.584 0.2 -0.584 0.196 -0.585 0.192 -0.588 0.188 -0.588 0.185 -0.59 0.182 -0.594 0.178 -0.593 0.175 -0.837 0.239 3.956 14.269 1.016 -0.291 0.682 -0.2 0.679 -0.204 0.678 -0.209 0.676 -0.213 0.674 -0.216 0.674 -0.221 0.67 -0.225 0.669 -0.228 0.668 -0.233 0.666 -0.237 0.663 -0.24 0.661 -0.245 0.659 -0.248 0.659 -0.253 0.655 -0.256 0.653 -0.26 0.652 -0.264 0.65 -0.268 0.648 -0.272 0.646 -0.275 0.583 -0.253 -5.853 -13.601z"/>
  </g>
 </g>
</svg>
