<?xml version="1.0" encoding="UTF-8"?>
<!DOCTYPE svg PUBLIC "-//W3C//DTD SVG 1.1//EN" "http://www.w3.org/Graphics/SVG/1.1/DTD/svg11.dtd">
<!-- Creator: CorelDRAW Standard 2020 -->
<svg xmlns="http://www.w3.org/2000/svg" xml:space="preserve" width="829px" height="273px" version="1.1" style="shape-rendering:geometricPrecision; text-rendering:geometricPrecision; image-rendering:optimizeQuality; fill-rule:evenodd; clip-rule:evenodd"
viewBox="0 0 829 273.086"
 xmlns:xlink="http://www.w3.org/1999/xlink"
 xmlns:xodm="http://www.corel.com/coreldraw/odm/2003">
 <defs>
  <style type="text/css">
   <![CDATA[
    .str0 {stroke:#EBA500;stroke-width:1.181;stroke-miterlimit:22.9256}
    .str2 {stroke:#FFB70F;stroke-width:1.181;stroke-miterlimit:22.9256}
    .str1 {stroke:#FFBF2B;stroke-width:1.181;stroke-miterlimit:22.9256}
    .str3 {stroke:#FFDA45;stroke-width:1.181;stroke-miterlimit:22.9256}
    .fil0 {fill:#EBA500}
    .fil3 {fill:#FFB70F}
    .fil2 {fill:#FFBF2B}
    .fil4 {fill:#FFDA45}
    .fil5 {fill:#A64D00;fill-rule:nonzero}
    .fil6 {fill:#D68F00;fill-rule:nonzero}
    .fil1 {fill:#F5C147;fill-rule:nonzero}
   ]]>
  </style>
 </defs>
 <g id="Layer_x0020_1">
  <metadata id="CorelCorpID_0Corel-Layer"/>
  <g id="_1089218416">
   <circle class="fil0 str0" cx="135.832" cy="136.893" r="136.163"/>
   <path class="fil1" d="M44.374 37.874c0,2.508 -1.017,4.78 -2.661,6.424 -1.23,1.23 -2.81,2.108 -4.578,2.474l0 42.273 -15.122 15.123 0 77.899 13.539 13.539 0 33.388c-1.26,-1.371 -2.489,-2.769 -3.693,-4.192l0 -27.667 -13.539 -13.539 0 -80.957 15.122 -15.122 0 -40.373c1.277,-1.457 2.581,-2.89 3.919,-4.29 0.656,-0.273 1.247,-0.672 1.741,-1.167 0.509,-0.509 0.917,-1.12 1.191,-1.801 1.283,-1.264 2.588,-2.508 3.92,-3.721 0.105,0.553 0.161,1.125 0.161,1.709zm27.724 5.671c0,2.508 -1.017,4.78 -2.661,6.424 -1.23,1.229 -2.81,2.108 -4.578,2.474l0 12.517 27.007 27.007 0 88.631 27.977 27.977 0 63.542c-1.236,-0.145 -2.467,-0.305 -3.693,-0.483l0 -61.53 -27.977 -27.977 0 -88.631 -27.007 -27.007 0 -14.046c-1.768,-0.366 -3.348,-1.245 -4.578,-2.474 -1.644,-1.644 -2.661,-3.916 -2.661,-6.424 0,-2.509 1.017,-4.78 2.661,-6.425 1.645,-1.644 3.916,-2.661 6.424,-2.661 2.509,0 4.781,1.017 6.425,2.661 1.644,1.645 2.661,3.916 2.661,6.425zm-5.272 3.813c0.975,-0.975 1.579,-2.324 1.579,-3.813 0,-1.49 -0.604,-2.838 -1.579,-3.814 -0.976,-0.975 -2.324,-1.579 -3.814,-1.579 -1.489,0 -2.837,0.604 -3.813,1.579 -0.975,0.976 -1.579,2.324 -1.579,3.814 0,1.489 0.604,2.838 1.579,3.813 0.976,0.976 2.324,1.58 3.813,1.58 1.49,0 2.838,-0.604 3.814,-1.58zm36.147 13.199c0,2.508 -1.018,4.78 -2.662,6.424 -1.229,1.23 -2.81,2.109 -4.577,2.474l0 13.958 26.947 26.947 0 77.502 34.357 34.357 0 49.191c-1.226,0.191 -2.457,0.369 -3.693,0.528l0 -48.19 -34.357 -34.358 0 -77.501 -26.947 -26.947 0 -15.487c-1.768,-0.365 -3.349,-1.244 -4.578,-2.474 -1.644,-1.644 -2.662,-3.916 -2.662,-6.424 0,-2.508 1.018,-4.78 2.662,-6.424 1.644,-1.644 3.915,-2.661 6.424,-2.661 2.508,0 4.78,1.017 6.424,2.661 1.644,1.644 2.662,3.916 2.662,6.424zm-5.273 3.814c0.976,-0.976 1.58,-2.325 1.58,-3.814 0,-1.489 -0.604,-2.838 -1.58,-3.813 -0.975,-0.976 -2.324,-1.579 -3.813,-1.579 -1.49,0 -2.838,0.603 -3.814,1.579 -0.975,0.975 -1.578,2.324 -1.578,3.813 0,1.489 0.603,2.838 1.578,3.814 0.976,0.975 2.324,1.579 3.814,1.579 1.489,0 2.838,-0.604 3.813,-1.579zm-45.135 67.386c0,2.509 -1.017,4.781 -2.661,6.425 -1.23,1.229 -2.81,2.108 -4.578,2.473l0 12.218 8.884 8.883 0 84.131c-1.25,-0.937 -2.478,-1.901 -3.693,-2.88l0 -79.722 -8.884 -8.884 0 -13.746c-1.768,-0.365 -3.348,-1.244 -4.578,-2.473 -1.644,-1.644 -2.661,-3.916 -2.661,-6.425 0,-2.508 1.017,-4.779 2.661,-6.424 1.645,-1.644 3.916,-2.661 6.424,-2.661 2.509,0 4.781,1.017 6.425,2.661 1.644,1.645 2.661,3.916 2.661,6.424zm-5.272 3.814c0.976,-0.976 1.58,-2.324 1.58,-3.814 0,-1.489 -0.604,-2.837 -1.58,-3.813 -0.976,-0.975 -2.324,-1.579 -3.814,-1.579 -1.489,0 -2.837,0.604 -3.813,1.579 -0.975,0.976 -1.579,2.324 -1.579,3.813 0,1.49 0.604,2.838 1.579,3.814 0.976,0.975 2.324,1.579 3.813,1.579 1.49,0 2.838,-0.604 3.814,-1.579zm36.147 -0.663c0,1.841 -0.548,3.554 -1.489,4.985l2.83 2.831 0 45.246 -16.323 16.323 0 50.948c-1.243,-0.709 -2.474,-1.439 -3.693,-2.186l0 -50.291 16.323 -16.323 0 -42.189 -1.748 -1.748c-1.432,0.941 -3.145,1.489 -4.986,1.489 -2.509,0 -4.78,-1.017 -6.424,-2.661 -1.644,-1.644 -2.662,-3.916 -2.662,-6.424 0,-2.508 1.018,-4.78 2.662,-6.424 1.644,-1.645 3.915,-2.661 6.424,-2.661 2.509,0 4.78,1.016 6.424,2.661 1.644,1.644 2.662,3.916 2.662,6.424zm-5.273 3.813c0.976,-0.975 1.58,-2.324 1.58,-3.813 0,-1.489 -0.604,-2.838 -1.58,-3.814 -0.975,-0.975 -2.324,-1.579 -3.813,-1.579 -1.489,0 -2.837,0.604 -3.813,1.579 -0.976,0.976 -1.58,2.325 -1.58,3.814 0,1.489 0.604,2.838 1.58,3.813 0.976,0.976 2.324,1.58 3.813,1.58 1.489,0 2.838,-0.604 3.813,-1.58zm34.406 -3.813c0,2.508 -1.018,4.78 -2.661,6.424 -1.23,1.229 -2.81,2.109 -4.578,2.474l0 39.868 22.915 22.915 0 66.253c-1.235,-0.069 -2.466,-0.153 -3.692,-0.254l0 -64.47 -22.917 -22.916 0 -41.396c-1.767,-0.365 -3.347,-1.245 -4.577,-2.474 -1.644,-1.644 -2.662,-3.916 -2.662,-6.424 0,-2.508 1.018,-4.78 2.662,-6.424 1.644,-1.645 3.916,-2.661 6.424,-2.661 2.509,0 4.78,1.016 6.425,2.661 1.643,1.644 2.661,3.916 2.661,6.424zm-5.272 3.813c0.975,-0.975 1.579,-2.324 1.579,-3.813 0,-1.489 -0.604,-2.838 -1.579,-3.814 -0.976,-0.975 -2.324,-1.579 -3.814,-1.579 -1.489,0 -2.838,0.604 -3.813,1.579 -0.976,0.976 -1.58,2.325 -1.58,3.814 0,1.489 0.604,2.838 1.58,3.813 0.975,0.976 2.324,1.58 3.813,1.58 1.49,0 2.838,-0.604 3.814,-1.58zm-62.927 35.883c0,1.841 -0.548,3.554 -1.489,4.986l3.284 3.284 0 56.486c-1.252,-1.096 -2.482,-2.215 -3.693,-3.355l0 -51.603 -2.202 -2.202c-1.431,0.942 -3.145,1.489 -4.985,1.489 -2.509,0 -4.781,-1.017 -6.425,-2.661 -1.644,-1.644 -2.661,-3.916 -2.661,-6.424 0,-2.509 1.017,-4.78 2.661,-6.424 1.644,-1.644 3.916,-2.662 6.425,-2.662 2.508,0 4.779,1.018 6.424,2.662 1.644,1.644 2.661,3.915 2.661,6.424zm-5.272 3.813c0.975,-0.976 1.579,-2.324 1.579,-3.813 0,-1.489 -0.604,-2.838 -1.579,-3.813 -0.976,-0.976 -2.324,-1.58 -3.813,-1.58 -1.49,0 -2.838,0.604 -3.814,1.58 -0.976,0.975 -1.58,2.324 -1.58,3.813 0,1.489 0.604,2.837 1.58,3.813 0.976,0.976 2.324,1.579 3.814,1.579 1.489,0 2.837,-0.603 3.813,-1.579zm35.972 -5.878c0,2.508 -1.017,4.78 -2.661,6.424 -1.645,1.644 -3.916,2.661 -6.425,2.661 -1.603,0 -3.11,-0.415 -4.418,-1.145l0 70.552c-1.245,-0.811 -2.475,-1.644 -3.692,-2.494l0 -70.498 0.514 -0.514c-0.941,-1.432 -1.489,-3.145 -1.489,-4.986 0,-2.508 1.017,-4.78 2.661,-6.424 1.644,-1.644 3.916,-2.661 6.424,-2.661 2.509,0 4.78,1.017 6.425,2.661 1.644,1.644 2.661,3.916 2.661,6.424zm-5.272 3.814c0.975,-0.976 1.579,-2.325 1.579,-3.814 0,-1.489 -0.604,-2.838 -1.579,-3.813 -0.976,-0.976 -2.324,-1.58 -3.814,-1.58 -1.489,0 -2.838,0.604 -3.813,1.58 -0.975,0.975 -1.579,2.324 -1.579,3.813 0,1.489 0.604,2.838 1.579,3.814 0.975,0.975 2.324,1.579 3.813,1.579 1.49,0 2.838,-0.604 3.814,-1.579zm-41.813 39.765c0,1.111 -0.2,2.176 -0.566,3.161 -1.131,-1.486 -2.231,-2.996 -3.302,-4.528 -0.246,-0.94 -0.738,-1.78 -1.404,-2.446 -0.191,-0.191 -0.396,-0.367 -0.613,-0.528 -1.03,-1.559 -2.03,-3.139 -2.996,-4.742 2.427,0.054 4.62,1.06 6.22,2.659 1.643,1.644 2.661,3.916 2.661,6.424zm70.573 -10.01c0,2.509 -1.018,4.78 -2.661,6.425 -1.645,1.644 -3.916,2.661 -6.425,2.661 -2.508,0 -4.78,-1.017 -6.424,-2.661 -1.644,-1.645 -2.661,-3.916 -2.661,-6.425 0,-2.508 1.017,-4.78 2.661,-6.424 1.644,-1.644 3.916,-2.661 6.424,-2.661 2.509,0 4.78,1.017 6.425,2.661 1.643,1.644 2.661,3.916 2.661,6.424zm-5.272 3.814c0.975,-0.976 1.579,-2.324 1.579,-3.814 0,-1.489 -0.604,-2.838 -1.579,-3.813 -0.976,-0.976 -2.324,-1.58 -3.814,-1.58 -1.489,0 -2.837,0.604 -3.813,1.58 -0.976,0.975 -1.58,2.324 -1.58,3.813 0,1.49 0.604,2.838 1.58,3.814 0.976,0.975 2.324,1.579 3.813,1.579 1.49,0 2.838,-0.604 3.814,-1.579zm52.032 -42.363c0,2.508 -1.017,4.78 -2.661,6.424 -1.644,1.644 -3.916,2.661 -6.425,2.661 -2.508,0 -4.779,-1.017 -6.424,-2.661 -1.644,-1.644 -2.661,-3.916 -2.661,-6.424 0,-2.508 1.017,-4.78 2.661,-6.424 1.645,-1.645 3.916,-2.661 6.424,-2.661 2.509,0 4.781,1.016 6.425,2.661 1.644,1.644 2.661,3.916 2.661,6.424zm-5.272 3.813c0.976,-0.975 1.579,-2.324 1.579,-3.813 0,-1.489 -0.603,-2.838 -1.579,-3.814 -0.976,-0.975 -2.324,-1.579 -3.814,-1.579 -1.489,0 -2.837,0.604 -3.813,1.579 -0.975,0.976 -1.579,2.325 -1.579,3.814 0,1.489 0.604,2.838 1.579,3.813 0.976,0.976 2.324,1.58 3.813,1.58 1.49,0 2.838,-0.604 3.814,-1.58zm4.508 -37.724c0,2.508 -1.016,4.78 -2.661,6.424 -0.785,0.785 -1.714,1.428 -2.744,1.885l14.261 14.26 0 40.315 11.146 11.146 0 62.332c-1.225,0.262 -2.456,0.51 -3.693,0.741l0 -61.544 -11.146 -11.146 0 -40.315 -15.047 -15.048c-2.19,-0.19 -4.157,-1.159 -5.625,-2.626 -1.644,-1.644 -2.661,-3.916 -2.661,-6.424 0,-2.508 1.017,-4.78 2.661,-6.424 1.644,-1.645 3.916,-2.661 6.424,-2.661 2.508,0 4.78,1.016 6.424,2.661 1.645,1.644 2.661,3.916 2.661,6.424zm-5.271 3.813c0.975,-0.975 1.579,-2.324 1.579,-3.813 0,-1.489 -0.604,-2.838 -1.579,-3.814 -0.976,-0.975 -2.325,-1.579 -3.814,-1.579 -1.489,0 -2.838,0.604 -3.813,1.579 -0.976,0.976 -1.58,2.325 -1.58,3.814 0,1.489 0.604,2.838 1.58,3.813 0.975,0.976 2.324,1.58 3.813,1.58 1.489,0 2.838,-0.604 3.814,-1.58zm36.323 -3.813c0,2.508 -1.017,4.78 -2.661,6.424 -1.229,1.229 -2.81,2.109 -4.578,2.473l0 56.198 2.469 2.469 0 67.292c-1.224,0.325 -2.455,0.636 -3.693,0.927l0 -66.69 -2.468 -2.469 0 -57.727c-1.768,-0.364 -3.349,-1.244 -4.578,-2.473 -1.644,-1.644 -2.661,-3.916 -2.661,-6.424 0,-2.508 1.017,-4.78 2.661,-6.424 1.644,-1.645 3.916,-2.661 6.424,-2.661 2.508,0 4.78,1.016 6.424,2.661 1.644,1.644 2.661,3.916 2.661,6.424zm-5.272 3.813c0.976,-0.975 1.58,-2.324 1.58,-3.813 0,-1.489 -0.604,-2.838 -1.58,-3.814 -0.975,-0.975 -2.324,-1.579 -3.813,-1.579 -1.489,0 -2.838,0.604 -3.814,1.579 -0.975,0.976 -1.579,2.325 -1.579,3.814 0,1.489 0.604,2.838 1.579,3.813 0.976,0.976 2.325,1.58 3.814,1.58 1.489,0 2.838,-0.604 3.813,-1.58zm27.322 25.665c0,2.509 -1.016,4.781 -2.661,6.425 -1.229,1.229 -2.81,2.108 -4.578,2.473l0 5.198 -9.316 9.317 0 78.799c-1.224,0.431 -2.454,0.845 -3.693,1.243l0 -81.571 9.317 -9.316 0 -3.67c-1.768,-0.365 -3.349,-1.244 -4.578,-2.473 -1.644,-1.644 -2.661,-3.916 -2.661,-6.425 0,-2.508 1.017,-4.779 2.661,-6.424 1.644,-1.644 3.916,-2.661 6.424,-2.661 2.508,0 4.78,1.017 6.424,2.661 1.645,1.645 2.661,3.916 2.661,6.424zm-5.271 3.814c0.975,-0.976 1.579,-2.324 1.579,-3.814 0,-1.489 -0.604,-2.837 -1.579,-3.813 -0.976,-0.975 -2.325,-1.579 -3.814,-1.579 -1.489,0 -2.838,0.604 -3.813,1.579 -0.976,0.976 -1.58,2.324 -1.58,3.813 0,1.49 0.604,2.838 1.58,3.814 0.975,0.976 2.324,1.58 3.813,1.58 1.489,0 2.838,-0.604 3.814,-1.58zm-102.496 70.043c0,2.508 -1.017,4.78 -2.661,6.424 -1.644,1.644 -3.916,2.661 -6.425,2.661 -2.508,0 -4.779,-1.017 -6.424,-2.661 -1.644,-1.644 -2.661,-3.916 -2.661,-6.424 0,-2.509 1.017,-4.78 2.661,-6.425 1.645,-1.644 3.916,-2.661 6.424,-2.661 2.509,0 4.781,1.017 6.425,2.661 1.644,1.645 2.661,3.916 2.661,6.425zm-5.272 3.813c0.976,-0.975 1.58,-2.324 1.58,-3.813 0,-1.49 -0.604,-2.838 -1.58,-3.814 -0.975,-0.975 -2.324,-1.579 -3.814,-1.579 -1.489,0 -2.837,0.604 -3.813,1.579 -0.975,0.976 -1.579,2.324 -1.579,3.814 0,1.489 0.604,2.838 1.579,3.813 0.976,0.976 2.324,1.58 3.813,1.58 1.49,0 2.839,-0.604 3.814,-1.58z"/>
   <circle class="fil2 str1" cx="321.39" cy="136.893" r="136.163"/>
   <circle class="fil3 str2" cx="692.507" cy="136.893" r="136.163"/>
   <circle class="fil4 str3" cx="506.949" cy="136.893" r="136.163"/>
   <polygon class="fil5" points="170.395,200.789 67.432,200.789 67.432,184.207 132.971,96.365 72.178,96.365 72.178,72.997 170.212,72.997 170.212,89.063 106.134,177.421 170.395,177.421 "/>
   <polygon class="fil5" points="339.235,72.997 339.235,95.27 328.464,95.27 328.464,178.517 339.235,178.517 339.235,200.789 288.849,200.789 288.849,178.517 299.62,178.517 299.62,95.27 288.849,95.27 288.849,72.997 "/>
   <path class="fil6" d="M516.259 198.873l0 19.351 -12.962 0 0 -18.803c-12.079,-0.061 -23.337,-2.8 -33.774,-8.215l0 -24.646c3.469,2.799 8.612,5.385 15.457,7.759 6.846,2.373 12.962,3.742 18.317,4.107l0 -32.495c-13.935,-5.173 -23.428,-10.772 -28.51,-16.796 -5.081,-6.024 -7.637,-13.388 -7.637,-22.059 0,-9.311 3.317,-17.252 9.919,-23.824 6.603,-6.542 15.335,-10.376 26.228,-11.441l0 -16.613 12.962 0 0 16.248c12.566,0.578 21.937,2.587 28.114,6.025l0 24.097c-8.337,-5.08 -17.708,-8.184 -28.114,-9.31l0 33.774c13.023,4.685 22.364,10.07 28.023,16.095 5.659,6.025 8.489,13.327 8.489,21.877 0,9.889 -3.165,17.83 -9.463,23.854 -6.298,6.025 -15.335,9.706 -27.049,11.015zm-12.962 -77.953l0 -28.297c-8.276,1.491 -12.414,5.812 -12.414,12.932 0,6.146 4.138,11.257 12.414,15.365zm12.962 30.122l0 27.019c8.519,-1.309 12.779,-5.568 12.779,-12.749 0,-5.842 -4.26,-10.588 -12.779,-14.27z"/>
   <path class="fil5" d="M772.119 200.789l-36.36 0 -37.211 -55.528c-0.731,-1.065 -1.857,-3.408 -3.378,-7.029l-0.456 0 0 62.557 -28.845 0 0 -127.792 28.845 0 0 60.428 0.456 0c0.7,-1.674 1.887,-4.047 3.56,-7.12l35.234 -53.308 34.321 0 -44.544 60.945 48.378 66.847z"/>
   <path class="fil6" d="M520.695 236.19l-0.971 0.129 -0.628 0.077 -0.629 0.074 -0.63 0.07 -0.632 0.066 -0.632 0.063 -0.633 0.058 -0.635 0.054 -0.637 0.051 -0.637 0.046 -0.638 0.042 -0.64 0.039 -0.641 0.035 -0.642 0.03 -0.642 0.027 -0.644 0.022 -0.645 0.019 -0.646 0.014 -0.646 0.01 -0.649 0.006 -0.65 0.002 0 14.77 0.743 -0.002 0.741 -0.007 0.742 -0.011 0.739 -0.017 0.739 -0.021 0.737 -0.025 0.737 -0.031 0.734 -0.035 0.734 -0.04 0.733 -0.044 0.731 -0.048 0.731 -0.054 0.728 -0.057 0.729 -0.063 0.727 -0.067 0.725 -0.071 0.724 -0.076 0.723 -0.081 0.72 -0.084 0.721 -0.089 1.065 -0.141 -1.956 -14.64zm-24.545 0.36l-0.72 -0.08 -0.629 -0.074 -0.628 -0.077 -0.626 -0.082 -0.625 -0.085 -0.624 -0.09 -0.623 -0.093 -0.621 -0.097 -0.621 -0.101 -0.619 -0.104 -0.617 -0.108 -0.615 -0.112 -0.616 -0.116 -0.613 -0.12 -0.612 -0.123 -0.612 -0.127 -0.608 -0.131 -0.608 -0.134 -0.608 -0.138 -0.605 -0.142 -0.603 -0.145 -0.477 -0.118 -3.59 14.327 0.565 0.14 0.694 0.167 0.695 0.163 0.696 0.158 0.698 0.155 0.7 0.15 0.701 0.145 0.704 0.142 0.704 0.137 0.706 0.133 0.707 0.129 0.709 0.124 0.711 0.12 0.711 0.115 0.713 0.112 0.715 0.106 0.716 0.103 0.717 0.098 0.719 0.094 0.72 0.089 0.721 0.084 0.813 0.09 1.585 -14.684zm-26.571 -6.622l-1.081 -0.441 -0.561 -0.236 -0.561 -0.239 -0.56 -0.243 -0.558 -0.246 -0.555 -0.249 -0.554 -0.253 -0.552 -0.256 -0.551 -0.258 -0.548 -0.262 -0.546 -0.266 -1.089 -0.541 -1.08 -0.553 -0.537 -0.281 -0.535 -0.285 -0.534 -0.288 -0.532 -0.291 -0.528 -0.294 -0.928 -0.524 -7.362 12.804 1.082 0.613 0.608 0.338 0.61 0.333 0.612 0.33 0.615 0.327 0.616 0.323 0.618 0.319 0.623 0.316 0.624 0.313 0.623 0.307 0.629 0.305 0.63 0.301 0.631 0.298 0.634 0.293 0.636 0.29 0.639 0.286 0.639 0.283 0.641 0.278 0.645 0.275 0.647 0.272 0.649 0.266 0.516 0.209 5.585 -13.673zm-23.814 -13.638l-0.695 -0.541 -0.942 -0.749 -0.932 -0.76 -0.464 -0.386 -0.461 -0.387 -0.458 -0.389 -0.456 -0.393 -0.905 -0.794 -0.449 -0.4 -0.446 -0.403 -0.444 -0.406 -0.88 -0.82 -0.437 -0.414 -0.434 -0.416 -0.861 -0.84c-0.341,-0.34 -0.682,-0.679 -1.019,-1.023l-10.568 10.318 0.717 0.724 0.489 0.486 0.491 0.484 0.495 0.48 0.498 0.477 0.5 0.475 0.503 0.471 0.507 0.468 0.508 0.465 0.513 0.463 0.515 0.46 0.517 0.456 0.519 0.452 0.523 0.451 0.526 0.447 0.529 0.444 0.53 0.44 0.534 0.438 0.536 0.436 0.539 0.431 0.542 0.429 0.764 0.594 9.056 -11.668zm-19.232 -19.555l-0.623 -0.845 -0.354 -0.488 -0.351 -0.491 -0.348 -0.493 -0.345 -0.494 -0.342 -0.497 -0.676 -1 -0.664 -1.009 -0.327 -0.507 -0.324 -0.508 -0.321 -0.512 -0.319 -0.514 -0.315 -0.516 -0.622 -1.037 -0.61 -1.045 -0.3 -0.526 -0.297 -0.527 -0.299 -0.54 -12.979 7.051 0.386 0.695 0.341 0.606 0.344 0.603 0.348 0.601 0.351 0.599 0.355 0.596 0.359 0.594 0.362 0.592 0.365 0.589 0.369 0.586 0.372 0.585 0.376 0.583 0.379 0.579 0.382 0.577 0.386 0.575 0.389 0.572 0.393 0.57 0.395 0.567 0.4 0.565 0.402 0.562 0.405 0.56 0.677 0.917 11.88 -8.775zm-13.232 -24.036l-0.291 -0.769 -0.213 -0.574 -0.209 -0.576 -0.205 -0.578 -0.202 -0.579 -0.199 -0.581 -0.195 -0.583 -0.191 -0.584 -0.189 -0.587 -0.185 -0.586 -0.18 -0.588 -0.179 -0.592 -0.174 -0.592 -0.17 -0.593 -0.167 -0.594 -0.164 -0.598 -0.16 -0.598 -0.155 -0.599 -0.153 -0.601 -0.149 -0.602 -0.145 -0.603 -0.14 -0.596 -14.391 3.322 0.16 0.685 0.167 0.694 0.171 0.691 0.175 0.69 0.18 0.69 0.183 0.686 0.188 0.684 0.192 0.684 0.196 0.683 0.2 0.679 0.203 0.677 0.209 0.677 0.212 0.676 0.216 0.672 0.22 0.67 0.224 0.67 0.228 0.668 0.232 0.665 0.237 0.663 0.24 0.663 0.244 0.66 0.322 0.852 13.807 -5.248zm-6.178 -26.719l-0.063 -0.73 -0.05 -0.637 -0.047 -0.637 -0.042 -0.639 -0.038 -0.639 -0.035 -0.641 -0.03 -0.642 -0.027 -0.641 -0.022 -0.645 -0.019 -0.646 -0.014 -0.645 -0.011 -0.647 -0.005 -0.648 -0.003 -0.65 0.003 -0.649 0.005 -0.649 0.011 -0.646 0.014 -0.646 0.019 -0.646 0.022 -0.644 0.032 -0.762 -14.751 -0.748 -0.041 0.95 -0.025 0.737 -0.021 0.738 -0.017 0.74 -0.012 0.741 -0.006 0.742 -0.003 0.742 0.003 0.742 0.006 0.742 0.012 0.741 0.017 0.74 0.021 0.738 0.025 0.737 0.03 0.737 0.036 0.735 0.039 0.734 0.044 0.732 0.049 0.732 0.053 0.73 0.058 0.729 0.071 0.824 14.712 -1.306zm1.266 -27.421l0.122 -0.648 0.119 -0.613 0.124 -0.613 0.127 -0.61 0.131 -0.61 0.134 -0.608 0.138 -0.607 0.142 -0.606 0.145 -0.602 0.149 -0.603 0.153 -0.601 0.155 -0.598 0.16 -0.599 0.164 -0.597 0.167 -0.594 0.17 -0.594 0.174 -0.592 0.179 -0.591 0.18 -0.589 0.185 -0.586 0.189 -0.587 0.204 -0.622 -13.991 -4.734 -0.262 0.796 -0.216 0.672 -0.212 0.675 -0.209 0.677 -0.203 0.677 -0.2 0.68 -0.196 0.682 -0.192 0.684 -0.188 0.684 -0.183 0.687 -0.18 0.69 -0.175 0.689 -0.171 0.692 -0.167 0.694 -0.163 0.695 -0.158 0.696 -0.155 0.698 -0.15 0.699 -0.146 0.702 -0.141 0.703 -0.137 0.704 -0.139 0.739 14.523 2.689zm8.641 -26.001l0.373 -0.749 0.554 -1.081 0.281 -0.537 0.285 -0.536 0.287 -0.533 0.585 -1.061 0.597 -1.054 0.61 -1.045 0.309 -0.519 0.628 -1.034 0.64 -1.025 0.324 -0.509 0.328 -0.507 0.663 -1.008 0.45 -0.668 -12.19 -8.34 -0.548 0.812 -0.382 0.577 -0.379 0.58 -0.376 0.582 -0.372 0.585 -0.369 0.587 -0.365 0.589 -0.362 0.592 -0.358 0.593 -0.356 0.597 -0.351 0.598 -0.348 0.601 -0.344 0.604 -0.341 0.605 -0.338 0.608 -0.333 0.61 -0.331 0.612 -0.326 0.615 -0.323 0.616 -0.319 0.619 -0.316 0.621 -0.415 0.831 13.228 6.572zm15.389 -22.685l0.741 -0.815 0.82 -0.881 0.83 -0.872 0.84 -0.859 0.851 -0.852 0.86 -0.839 0.872 -0.831 0.88 -0.82 0.444 -0.405 0.446 -0.404 0.9 -0.798 0.454 -0.395c0.309,-0.267 0.618,-0.535 0.931,-0.797l-9.469 -11.336 -0.609 0.518 -0.523 0.45 -0.521 0.454 -0.517 0.456 -0.514 0.459 -0.512 0.463 -0.509 0.465 -0.507 0.468 -0.503 0.472 -0.5 0.474 -0.498 0.477 -0.495 0.48 -0.491 0.484 -0.489 0.486 -0.486 0.489 -0.484 0.492 -0.48 0.495 -0.478 0.497 -0.474 0.501 -0.471 0.503 -0.468 0.506 -0.467 0.51 -0.336 0.372 10.932 9.933zm20.982 -17.725c0.353,-0.225 0.709,-0.444 1.063,-0.664l1.035 -0.629 0.519 -0.309 1.045 -0.609 0.526 -0.3 0.528 -0.297 0.528 -0.294 0.532 -0.291 0.534 -0.288 0.535 -0.285 0.537 -0.281 0.54 -0.278 0.54 -0.275 0.544 -0.272 0.545 -0.269 0.546 -0.265 0.548 -0.263 0.551 -0.258 0.88 -0.405 -6.085 -13.459 -1.044 0.48 -0.631 0.298 -0.63 0.301 -0.629 0.305 -0.624 0.308 -0.623 0.312 -0.621 0.316 -0.62 0.32 -0.616 0.322 -0.615 0.327 -0.612 0.33 -0.61 0.333 -0.608 0.338 -0.606 0.341 -0.602 0.345 -0.601 0.348 -0.599 0.351 -0.597 0.355 -0.593 0.358 -0.591 0.362 -0.59 0.365 -0.625 0.394 7.896 12.482zm24.918 -11.34l0.593 -0.174 0.593 -0.171 0.595 -0.167 0.597 -0.163 0.598 -0.16 0.598 -0.156 1.204 -0.302 0.603 -0.145 0.605 -0.142 0.607 -0.137 0.609 -0.135 0.61 -0.131 0.61 -0.127 0.612 -0.123 0.613 -0.12 0.616 -0.116 0.615 -0.112 0.617 -0.108 0.619 -0.104 0.621 -0.101 0.677 -0.105 -2.139 -14.615 -0.861 0.134 -0.711 0.115 -0.711 0.12 -0.709 0.124 -0.707 0.129 -0.706 0.133 -0.704 0.137 -0.704 0.142 -0.701 0.146 -0.7 0.15 -0.697 0.154 -0.697 0.158 -0.695 0.163 -0.694 0.167 -0.691 0.171 -0.69 0.175 -0.69 0.181 -0.687 0.183 -0.683 0.187 -0.685 0.192 -0.681 0.196 -0.592 0.174 4.123 14.183zm27.144 -4.135l0.836 -0.009 0.649 -0.002 0.65 0.002 0.649 0.006 0.646 0.01 0.645 0.014 0.646 0.019 0.645 0.022 0.641 0.027 0.642 0.03 0.641 0.035 0.64 0.039 0.638 0.042 0.637 0.046 0.637 0.051 0.635 0.054 0.633 0.058 0.632 0.063 0.632 0.066 0.63 0.07 0.71 0.084 1.862 -14.653 -0.894 -0.105 -0.723 -0.081 -0.724 -0.076 -0.725 -0.071 -0.727 -0.067 -0.729 -0.063 -0.728 -0.057 -0.731 -0.054 -0.731 -0.048 -0.733 -0.044 -0.734 -0.04 -0.734 -0.035 -0.738 -0.03 -0.736 -0.026 -0.738 -0.021 -0.74 -0.017 -0.742 -0.011 -0.741 -0.007 -0.743 -0.002 -0.742 0.002 -0.929 0.01 0.186 14.769zm27.208 3.319l0.53 0.141 0.597 0.163 0.594 0.167 0.593 0.17 0.593 0.175 0.591 0.178 0.588 0.181 0.587 0.184 0.586 0.189 0.585 0.191 0.582 0.195 0.581 0.199 0.58 0.202 0.577 0.206 0.576 0.208 0.574 0.213 0.574 0.216 0.571 0.219 0.569 0.223 0.568 0.226 0.566 0.229 0.861 0.357 5.753 -13.604 -1.026 -0.426 -0.651 -0.264 -0.652 -0.259 -0.655 -0.256 -0.656 -0.252 -0.657 -0.247 -0.66 -0.244 -0.662 -0.24 -0.664 -0.236 -0.665 -0.232 -0.667 -0.228 -0.67 -0.225 -0.671 -0.219 -0.672 -0.216 -0.676 -0.213 -0.676 -0.208 -0.678 -0.204 -0.679 -0.2 -0.682 -0.196 -0.685 -0.192 -0.684 -0.187 -0.529 -0.142 -3.859 14.258zm25.285 10.6l0.961 0.576 0.515 0.316 0.514 0.318 0.512 0.322 0.509 0.324 0.506 0.327 1.01 0.664 1 0.676 0.496 0.342 0.495 0.345 0.492 0.347 0.491 0.352 0.488 0.354 0.485 0.356 0.484 0.359 0.482 0.363 0.479 0.365 0.476 0.367 0.948 0.745 -0.029 -0.023 9.265 -11.503 -0.582 -0.461 -0.544 -0.424 -0.548 -0.423 -0.55 -0.419 -0.551 -0.415 -0.554 -0.412 -0.558 -0.409 -0.56 -0.406 -0.561 -0.402 -0.566 -0.399 -0.567 -0.396 -0.57 -0.393 -0.572 -0.388 -0.575 -0.386 -0.577 -0.382 -0.579 -0.379 -0.583 -0.377 -0.585 -0.372 -0.586 -0.369 -0.589 -0.365 -0.592 -0.361 -0.594 -0.359 -0.443 -0.264 -7.593 12.669zm21.497 17.095l0.464 0.49 0.821 0.881 0.405 0.443 0.804 0.896 0.793 0.905 0.394 0.456 0.389 0.458 0.771 0.924 0.762 0.933 0.376 0.47 0.373 0.471 0.371 0.476 0.368 0.477 0.364 0.479 0.363 0.482 0.36 0.483 0.614 0.842 11.985 -8.633 -0.718 -0.984 -0.413 -0.555 -0.415 -0.551 -0.419 -0.55 -0.422 -0.547 -0.424 -0.543 -0.429 -0.542 -0.432 -0.54 -0.434 -0.536 -0.438 -0.533 -0.44 -0.531 -0.444 -0.529 -0.448 -0.526 -0.45 -0.522 -0.453 -0.52 -0.456 -0.517 -0.46 -0.515 -0.462 -0.512 -0.466 -0.509 -0.468 -0.506 -0.471 -0.503 -0.525 -0.553 -10.69 10.191zm16.057 22.222l0.43 0.819 0.554 1.081 0.271 0.542 0.269 0.545 0.266 0.547 0.262 0.548 0.259 0.55 0.256 0.553 0.252 0.553 0.249 0.556 0.246 0.558 0.243 0.559 0.239 0.561 0.236 0.562 0.232 0.565 0.23 0.566 0.226 0.568 0.223 0.57 0.218 0.57 0.216 0.573 0.216 0.583 13.9 -4.994 -0.278 -0.752 -0.247 -0.657 -0.252 -0.657 -0.256 -0.654 -0.259 -0.652 -0.263 -0.65 -0.267 -0.648 -0.272 -0.647 -0.274 -0.645 -0.279 -0.642 -0.282 -0.639 -0.287 -0.638 -0.29 -0.637 -0.293 -0.633 -0.298 -0.632 -0.301 -0.63 -0.305 -0.628 -0.307 -0.625 -0.313 -0.623 -0.315 -0.621 -0.32 -0.619 -0.473 -0.898 -13.062 6.892zm9.414 25.736l0.219 1.04 0.124 0.613 0.119 0.613 0.116 0.615 0.112 0.616 0.108 0.617 0.105 0.618 0.101 0.622 0.096 0.621 0.094 0.622 0.089 0.624 0.085 0.626 0.082 0.626 0.078 0.628 0.074 0.629 0.07 0.63 0.066 0.631 0.062 0.633 0.059 0.633 0.054 0.635 0.055 0.703 14.735 -1.027 -0.07 -0.889 -0.062 -0.728 -0.067 -0.727 -0.072 -0.725 -0.075 -0.724 -0.081 -0.723 -0.085 -0.721 -0.089 -0.72 -0.094 -0.72 -0.098 -0.716 -0.102 -0.717 -0.107 -0.714 -0.111 -0.714 -0.116 -0.71 -0.12 -0.711 -0.124 -0.71 -0.129 -0.707 -0.133 -0.706 -0.137 -0.704 -0.141 -0.703 -0.238 -1.13 -14.452 3.051zm2.071 27.373l-0.061 0.958 -0.047 0.637 -0.05 0.637 -0.054 0.634 -0.059 0.633 -0.062 0.633 -0.066 0.631 -0.07 0.63 -0.074 0.63 -0.078 0.627 -0.082 0.626 -0.085 0.626 -0.089 0.624 -0.094 0.623 -0.096 0.621 -0.101 0.621 -0.105 0.618 -0.108 0.617 -0.112 0.616 -0.116 0.615 -0.15 0.766 14.47 2.961 0.186 -0.947 0.133 -0.706 0.129 -0.707 0.124 -0.709 0.12 -0.711 0.116 -0.711 0.111 -0.713 0.107 -0.715 0.102 -0.716 0.098 -0.717 0.094 -0.72 0.089 -0.72 0.085 -0.72 0.081 -0.724 0.075 -0.723 0.072 -0.726 0.067 -0.726 0.062 -0.729 0.058 -0.729 0.053 -0.73 0.068 -1.051 -14.741 -0.934zm-5.377 26.887l-0.309 0.874 -0.209 0.577 -0.213 0.575 -0.216 0.573 -0.218 0.57 -0.223 0.57 -0.226 0.568 -0.23 0.567 -0.232 0.564 -0.236 0.562 -0.239 0.561 -0.243 0.56 -0.246 0.557 -0.249 0.556 -0.252 0.554 -0.256 0.552 -0.259 0.55 -0.262 0.549 -0.266 0.546 -0.269 0.545 -0.271 0.543 -0.275 0.54 13.105 6.812 0.356 -0.699 0.313 -0.623 0.307 -0.625 0.306 -0.628 0.3 -0.63 0.298 -0.632 0.293 -0.633 0.29 -0.636 0.287 -0.639 0.282 -0.639 0.279 -0.642 0.274 -0.644 0.272 -0.647 0.267 -0.649 0.263 -0.65 0.259 -0.651 0.256 -0.654 0.252 -0.658 0.247 -0.657 0.244 -0.659 0.24 -0.662 0.34 -0.961 -13.931 -4.907zm-12.51 24.416l-0.416 0.59 -0.351 0.49 -0.354 0.487 -0.716 0.971 -0.363 0.482 -0.365 0.479 -0.738 0.951 -0.749 0.942 -0.762 0.933 -0.383 0.463 -0.388 0.461 -0.39 0.459 -0.788 0.909 -0.398 0.452 -0.804 0.895 -0.669 0.728 10.81 10.065 0.789 -0.859 0.462 -0.512 0.46 -0.514 0.456 -0.518 0.453 -0.52 0.451 -0.523 0.447 -0.525 0.443 -0.528 0.441 -0.531 0.438 -0.534 0.435 -0.536 0.431 -0.539 0.428 -0.542 0.425 -0.544 0.422 -0.547 0.419 -0.55 0.415 -0.551 0.412 -0.555 0.409 -0.556 0.406 -0.561 0.403 -0.563 0.468 -0.663 -12.089 -8.486zm-18.644 20.114l-0.695 0.565 -0.943 0.75 -0.951 0.738 -0.479 0.365 -0.482 0.363 -0.97 0.716 -0.487 0.354 -0.491 0.35 -0.491 0.348 -0.993 0.688 -0.498 0.339 -0.501 0.336 -1.009 0.664 -0.507 0.327 -0.509 0.324 -0.512 0.322 -0.677 0.418 7.67 12.623 0.828 -0.511 0.586 -0.369 0.585 -0.372 0.583 -0.376 0.579 -0.379 0.577 -0.383 0.575 -0.385 0.573 -0.39 0.569 -0.392 0.567 -0.395 0.565 -0.4 0.563 -0.402 0.56 -0.407 0.557 -0.408 0.554 -0.412 0.551 -0.415 0.55 -0.419 0.548 -0.422 0.543 -0.425 0.542 -0.428 0.539 -0.431 0.763 -0.622 -9.332 -11.447zm-23.362 14.325l-0.581 0.251 -0.561 0.24 -0.562 0.236 -0.564 0.232 -0.567 0.229 -0.568 0.227 -0.569 0.222 -0.571 0.219 -0.572 0.216 -0.576 0.213 -0.576 0.209 -0.577 0.205 -0.58 0.202 -0.581 0.199 -0.584 0.195 -0.583 0.191 -0.586 0.189 -0.587 0.185 -0.588 0.18 -0.592 0.179 -0.592 0.174 -0.835 0.238 3.945 14.233 1.015 -0.289 0.68 -0.2 0.677 -0.204 0.676 -0.208 0.675 -0.212 0.673 -0.216 0.672 -0.221 0.669 -0.224 0.666 -0.227 0.666 -0.233 0.665 -0.236 0.661 -0.24 0.659 -0.244 0.658 -0.247 0.657 -0.252 0.654 -0.256 0.652 -0.259 0.649 -0.264 0.649 -0.267 0.647 -0.271 0.644 -0.275 0.581 -0.252 -5.838 -13.567z"/>
  </g>
 </g>
</svg>
